<?xml version="1.0" standalone="no"?>
<!DOCTYPE svg PUBLIC "-//W3C//DTD SVG 20010904//EN"
 "http://www.w3.org/TR/2001/REC-SVG-20010904/DTD/svg10.dtd">
<svg version="1.0" xmlns="http://www.w3.org/2000/svg"
 width="1014.000000pt" height="1014.000000pt" viewBox="0 0 1014.000000 1014.000000"
 preserveAspectRatio="xMidYMid meet">
<metadata>
Created by potrace 1.14, written by Peter Selinger 2001-2017
</metadata>
<g transform="translate(0.000000,1014.000000) scale(0.100000,-0.100000)"
fill="#000000" stroke="none">
<path d="M0 5065 l0 -5045 4318 0 4317 0 745 745 c588 588 746 741 752 727 3
-9 7 1926 7 4301 l1 4317 -5070 0 -5070 0 0 -5045z m5640 4185 c268 -37 493
-83 665 -136 154 -47 300 -97 310 -106 5 -4 17 -8 26 -8 26 0 182 -76 217
-105 66 -55 78 -164 27 -231 -36 -48 -81 -64 -192 -69 -105 -6 -209 -13 -258
-19 -16 -2 -66 -7 -110 -11 -44 -4 -89 -9 -100 -11 -28 -6 -74 -13 -110 -18
-90 -11 -243 -43 -415 -87 -256 -64 -543 -186 -755 -319 -87 -55 -118 -78
-208 -150 -27 -22 -137 -131 -172 -171 -71 -81 -175 -237 -175 -263 0 -7 -7
-19 -15 -26 -8 -7 -15 -19 -15 -27 0 -8 -6 -27 -14 -41 -40 -74 -83 -273 -84
-392 -1 -131 45 -347 102 -475 41 -90 132 -241 195 -320 98 -123 272 -286 556
-519 99 -82 200 -164 224 -184 24 -20 60 -49 80 -65 20 -15 43 -33 51 -40 8
-7 60 -49 115 -93 481 -390 769 -653 935 -854 88 -106 240 -311 240 -324 0 -3
20 -36 43 -73 138 -215 268 -548 303 -778 4 -27 9 -57 11 -65 2 -8 7 -60 12
-115 13 -145 5 -363 -18 -495 -21 -120 -71 -304 -96 -353 -8 -16 -15 -35 -15
-42 0 -7 -13 -39 -29 -71 -15 -33 -45 -94 -65 -136 -21 -43 -45 -88 -55 -100
-9 -13 -29 -44 -44 -70 -29 -50 -156 -211 -189 -241 -34 -29 -13 -30 39 -1 26
15 68 38 93 51 192 101 495 392 663 636 44 63 157 283 157 305 0 5 10 31 21
57 72 163 89 514 38 785 -14 74 -66 257 -84 297 -8 17 -15 34 -15 38 0 9 -45
115 -83 195 -56 117 -240 415 -307 496 -14 17 -43 53 -65 80 -117 145 -363
375 -570 534 -38 30 -92 73 -120 95 -27 23 -122 93 -210 156 -88 63 -161 117
-163 122 -2 4 -8 7 -13 7 -7 0 -65 40 -114 78 -5 4 -17 11 -25 15 -8 4 -40 25
-70 48 -30 22 -86 62 -125 87 -38 26 -72 49 -75 52 -3 3 -32 23 -65 44 -33 21
-72 47 -87 57 -15 11 -31 19 -36 19 -17 0 -46 40 -36 50 24 24 241 30 350 10
101 -18 258 -60 268 -71 6 -5 17 -9 25 -9 15 0 252 -116 311 -152 358 -222
644 -445 875 -681 239 -244 335 -368 523 -672 134 -216 255 -518 307 -765 59
-278 63 -532 14 -805 -36 -196 -71 -307 -150 -471 -21 -44 -39 -84 -39 -88 0
-4 -11 -22 -25 -40 -14 -18 -25 -36 -25 -40 0 -12 -153 -227 -190 -266 -8 -9
-33 -36 -56 -61 -40 -43 -199 -194 -226 -214 -8 -5 -36 -28 -63 -51 -28 -22
-63 -49 -80 -60 -16 -10 -55 -37 -85 -60 -126 -93 -370 -229 -540 -302 -202
-85 -485 -177 -645 -208 -22 -4 -42 -8 -45 -9 -20 -4 -151 -27 -230 -40 -287
-45 -735 -51 -1030 -15 -201 25 -238 30 -270 40 -19 5 -73 16 -120 25 -47 8
-139 29 -205 46 -66 17 -138 35 -160 40 -41 10 -125 36 -225 71 -30 11 -76 26
-102 34 -26 8 -50 19 -53 24 -3 6 -14 10 -25 10 -10 0 -45 14 -78 30 -34 17
-64 30 -68 30 -3 0 -23 14 -44 30 -88 70 -105 155 -47 232 45 60 86 77 193 83
278 14 318 17 519 46 166 24 255 41 390 75 95 24 317 94 360 113 11 5 55 25
98 45 43 20 80 36 83 36 9 0 118 66 214 129 325 213 567 529 635 826 27 121
25 394 -4 460 -5 11 -14 43 -21 70 -12 53 -85 229 -105 255 -7 8 -26 41 -44
72 -119 212 -333 421 -900 878 -24 19 -48 40 -55 45 -6 6 -32 27 -58 48 -26
21 -53 44 -60 50 -7 7 -44 37 -83 67 -38 29 -97 77 -130 105 -33 29 -73 63
-89 76 -16 13 -37 31 -46 39 -8 8 -63 55 -120 105 -140 119 -271 240 -414 380
-46 45 -173 194 -233 273 -88 115 -263 405 -263 436 0 7 -7 19 -15 26 -8 7
-15 19 -15 27 0 8 -8 33 -19 56 -72 163 -132 385 -156 575 -14 118 -17 391 -4
462 4 25 13 81 19 125 12 82 70 279 96 327 8 14 14 31 14 37 0 6 28 68 63 137
83 168 81 164 89 164 5 0 8 5 8 11 0 10 64 98 135 187 35 42 19 41 -57 -7
-190 -120 -364 -278 -506 -462 -49 -65 -142 -204 -142 -214 0 -3 -10 -22 -23
-43 -13 -20 -33 -62 -46 -92 -12 -30 -26 -64 -31 -75 -27 -58 -80 -243 -92
-321 -7 -50 -13 -165 -12 -264 0 -255 38 -434 143 -685 58 -137 181 -364 238
-435 6 -8 47 -62 90 -120 168 -226 553 -580 1008 -929 55 -42 263 -205 339
-266 34 -27 77 -61 96 -75 142 -107 280 -229 280 -246 0 -8 -9 -15 -20 -15
-11 -1 -35 -2 -52 -3 -80 -5 -328 43 -415 79 -20 8 -42 15 -50 15 -34 0 -283
133 -423 225 -25 17 -52 35 -61 40 -109 69 -388 284 -513 395 -199 177 -318
298 -470 480 -196 234 -350 487 -441 723 -15 40 -33 86 -40 102 -23 53 -44
122 -74 237 -47 184 -56 271 -55 508 1 186 11 290 40 410 21 86 83 272 95 285
5 5 9 18 9 28 0 10 6 31 14 45 8 15 29 59 47 97 18 39 35 72 38 75 8 7 26 38
50 85 49 97 239 326 375 455 32 30 75 70 95 89 36 34 117 97 248 194 84 63
306 192 433 253 74 36 143 69 152 75 10 5 23 9 30 9 7 0 27 7 43 16 42 22 371
131 452 149 101 23 155 35 182 40 13 2 47 9 75 15 100 20 232 39 321 46 50 3
93 8 97 10 3 2 91 7 195 10 103 4 189 7 190 8 6 5 422 -24 493 -34z m1710
-884 c36 -3 83 -10 105 -16 22 -5 59 -10 82 -10 38 0 126 -24 188 -50 11 -5
34 -11 50 -15 37 -8 191 -81 200 -95 3 -6 15 -10 26 -10 11 0 22 -7 25 -15 4
-8 11 -15 16 -15 5 0 31 -17 56 -37 26 -21 53 -42 61 -48 27 -18 191 -186 191
-195 0 -5 12 -23 26 -40 15 -17 24 -34 20 -37 -5 -6 -67 22 -168 73 -14 8 -36
14 -49 14 -12 0 -30 6 -38 14 -17 15 -170 56 -207 56 -13 0 -26 5 -29 10 -3 6
-15 10 -26 10 -11 0 -59 9 -107 19 -177 40 -541 60 -702 40 -36 -4 -114 -13
-175 -19 -60 -6 -115 -16 -121 -21 -6 -5 -13 -7 -16 -4 -8 8 -243 -41 -308
-64 -14 -5 -58 -19 -99 -31 -40 -13 -85 -29 -100 -36 -14 -8 -31 -14 -37 -14
-6 0 -33 -9 -60 -21 -27 -11 -58 -24 -69 -29 -123 -52 -368 -182 -417 -221
-20 -16 -41 -29 -45 -29 -5 0 -31 -18 -58 -41 -27 -22 -58 -45 -69 -51 -59
-31 -254 -217 -365 -348 -100 -118 -101 -120 -101 -129 0 -5 -7 -14 -15 -21
-16 -13 -80 -107 -106 -155 -9 -16 -26 -46 -37 -65 -12 -19 -31 -54 -43 -78
-13 -23 -26 -39 -30 -35 -29 30 -45 280 -26 386 10 52 51 186 67 216 5 9 18
37 30 63 12 27 26 50 31 54 5 3 9 14 9 25 0 10 4 19 8 19 5 0 17 16 28 35 10
19 22 35 26 35 5 0 8 7 8 15 0 8 22 38 50 67 27 29 50 56 50 60 0 10 116 128
126 128 4 0 32 23 63 50 77 69 90 80 98 80 3 0 22 12 42 28 57 43 101 72 111
72 5 0 15 6 22 13 28 25 37 30 294 153 39 19 78 34 85 34 8 0 23 6 34 13 11 7
54 23 95 36 41 13 91 29 110 36 19 7 63 20 98 29 156 40 197 50 257 63 11 2
58 9 105 14 47 6 92 14 100 16 25 9 50 12 170 19 63 3 116 8 118 9 5 4 264 -3
342 -9z m315 -731 c36 -3 73 -11 245 -50 144 -33 232 -61 293 -91 16 -8 34
-14 41 -14 24 0 261 -128 317 -172 20 -15 41 -28 47 -28 18 0 259 -245 305
-310 52 -76 83 -125 97 -160 6 -14 19 -43 29 -65 45 -98 51 -114 51 -127 0 -8
4 -18 9 -23 8 -9 18 -46 41 -151 11 -51 19 -199 13 -225 -4 -16 -10 -13 -37
20 -17 20 -40 50 -51 66 -51 72 -178 218 -260 298 -140 139 -394 337 -431 337
-8 0 -17 6 -20 14 -3 8 -13 17 -22 20 -9 3 -42 19 -72 36 -30 16 -60 30 -66
30 -6 0 -17 7 -24 15 -7 8 -19 15 -27 15 -8 0 -48 16 -89 35 -41 19 -82 35
-92 35 -9 1 -35 9 -57 20 -22 11 -50 19 -62 20 -12 0 -24 4 -27 9 -3 5 -32 12
-63 16 -32 4 -62 11 -68 15 -9 7 -101 24 -185 36 -258 33 -673 33 -825 -1 -33
-7 -85 -16 -115 -20 -30 -4 -59 -10 -65 -14 -5 -3 -35 -11 -65 -18 -76 -16
-142 -32 -160 -40 -8 -3 -23 -8 -33 -9 -33 -7 -251 -92 -315 -123 -34 -17 -65
-31 -67 -31 -3 0 -39 -20 -79 -45 -41 -25 -79 -45 -85 -45 -5 0 -36 -17 -68
-38 -32 -21 -69 -43 -83 -50 -14 -7 -41 -23 -60 -37 -19 -13 -50 -35 -69 -47
-18 -13 -41 -31 -51 -40 -10 -9 -29 -22 -42 -29 -13 -7 -44 -30 -71 -52 -55
-47 -68 -46 -27 3 17 19 30 38 30 42 0 10 21 37 95 118 33 37 67 75 76 86 25
29 233 214 256 227 11 7 59 38 106 70 155 104 333 198 517 272 25 10 59 24 77
31 17 8 37 14 45 14 8 0 23 7 34 15 10 8 26 15 35 15 20 0 151 40 164 50 6 4
40 11 77 14 37 4 82 12 100 17 37 12 62 16 128 24 25 2 77 9 115 15 39 6 93
12 120 14 53 3 401 -3 470 -9z m-5931 -292 c-7 -21 -13 -47 -14 -59 0 -11 -3
-24 -7 -28 -5 -4 -14 -35 -21 -69 -34 -166 -41 -205 -41 -245 -1 -24 -5 -51
-11 -61 -21 -40 -18 -451 4 -611 21 -151 29 -196 35 -205 5 -5 11 -30 15 -55
8 -51 92 -305 116 -348 5 -9 25 -51 44 -92 20 -41 42 -86 50 -100 8 -14 17
-32 21 -40 24 -59 174 -272 275 -390 109 -128 255 -277 329 -336 13 -10 43
-35 65 -54 76 -66 134 -110 145 -110 6 0 11 -4 11 -9 0 -7 255 -179 290 -195
8 -4 24 -12 35 -19 17 -11 60 -36 140 -84 19 -12 31 -18 58 -28 6 -3 19 -9 27
-14 8 -5 22 -12 30 -15 8 -3 22 -10 30 -15 8 -5 47 -24 85 -41 39 -18 82 -38
96 -46 14 -7 29 -11 32 -7 4 3 14 0 23 -8 17 -14 20 -15 189 -78 61 -23 117
-45 125 -50 9 -5 36 -12 60 -16 25 -4 59 -14 75 -23 l30 -16 -35 -8 c-19 -4
-57 -11 -85 -15 -56 -9 -380 -7 -465 2 -66 7 -189 29 -210 37 -8 4 -40 11 -70
18 -139 29 -183 42 -306 92 -71 29 -162 72 -201 96 -39 23 -76 42 -82 42 -6 0
-11 4 -11 8 0 4 -16 14 -35 21 -19 7 -35 17 -35 22 0 5 -5 9 -10 9 -6 0 -38
20 -73 44 -34 24 -79 55 -99 68 -80 55 -200 160 -350 308 -87 85 -158 159
-158 163 0 5 -24 37 -54 70 -29 34 -73 91 -97 126 -24 35 -56 80 -71 100 -14
20 -39 61 -54 91 -16 30 -42 78 -58 105 -45 79 -96 179 -96 191 0 6 -7 17 -15
24 -8 7 -15 20 -15 29 -1 9 -9 34 -20 56 -11 22 -19 48 -20 58 0 9 -4 17 -8
17 -4 0 -14 28 -21 63 -8 34 -17 67 -21 72 -4 6 -11 33 -15 60 -4 28 -10 55
-15 60 -4 6 -13 44 -20 85 -45 279 -37 444 35 730 21 81 80 225 112 267 12 17
23 38 23 46 0 9 4 17 8 19 4 2 29 33 55 69 45 64 238 259 256 259 5 0 3 -17
-5 -37z m5466 -507 c136 -12 238 -26 325 -46 50 -12 117 -27 150 -35 33 -7 96
-27 140 -43 44 -17 96 -36 115 -42 19 -7 42 -16 50 -20 8 -5 57 -29 109 -55
80 -40 231 -130 266 -158 6 -4 35 -25 65 -47 80 -58 118 -89 181 -147 31 -29
59 -53 63 -53 4 0 22 -17 39 -37 18 -20 74 -82 124 -137 51 -56 93 -105 93
-110 0 -4 13 -25 29 -45 52 -67 97 -136 121 -186 14 -27 35 -64 47 -81 13 -17
23 -36 23 -41 0 -6 12 -37 26 -69 38 -88 41 -94 59 -154 57 -184 79 -424 57
-625 -14 -124 -42 -287 -53 -307 -5 -9 -12 -35 -15 -58 -4 -22 -11 -43 -15
-46 -5 -3 -9 -15 -9 -27 0 -12 -11 -44 -25 -72 l-24 -50 -2 60 c-3 80 -3 81
-17 150 -7 33 -16 83 -21 110 -9 47 -17 78 -56 235 -9 36 -20 69 -25 74 -6 6
-10 19 -10 31 -1 11 -9 38 -20 60 -11 22 -19 48 -20 58 0 9 -4 25 -9 35 -10
18 -34 72 -71 157 -58 135 -206 394 -231 403 -5 2 -9 10 -9 17 0 8 -13 29 -28
47 -15 18 -40 51 -55 73 -47 69 -292 314 -379 377 -13 10 -43 33 -68 53 -58
46 -60 47 -95 70 -48 32 -59 38 -121 73 -32 17 -66 36 -74 41 -8 5 -22 12 -30
15 -8 3 -22 10 -30 14 -14 9 -51 25 -122 56 -65 28 -144 55 -178 61 -19 3 -44
10 -55 15 -29 13 -192 50 -221 50 -14 0 -34 5 -44 10 -51 27 -507 43 -720 24
-92 -7 -101 -9 -117 -14 -5 -1 -11 -2 -14 -2 -3 1 -55 -8 -115 -20 -60 -11
-130 -24 -156 -28 -26 -5 -55 -13 -65 -18 -10 -6 -40 -13 -68 -17 -27 -4 -54
-10 -60 -14 -9 -5 -67 -22 -175 -51 -25 -7 -59 -18 -77 -26 -17 -8 -36 -14
-42 -14 -7 0 -23 -7 -36 -16 -14 -9 -25 -13 -25 -9 0 4 -11 0 -25 -9 -14 -9
-25 -12 -25 -6 0 5 4 10 10 10 5 0 27 17 48 38 47 44 70 63 93 77 9 6 45 30
80 54 98 67 324 178 454 223 33 11 65 24 70 28 6 3 30 12 55 19 25 7 54 17 65
22 11 4 45 12 75 18 30 5 98 19 150 31 98 22 230 40 312 44 26 1 49 4 52 6 6
6 222 4 306 -4z m-555 -726 c6 -5 26 -8 45 -8 118 3 452 -70 585 -128 97 -42
129 -54 140 -54 8 0 15 -4 17 -8 2 -4 32 -23 68 -41 66 -34 286 -176 305 -196
6 -6 32 -27 58 -46 88 -63 337 -301 395 -379 15 -19 52 -67 82 -106 81 -103
158 -216 188 -274 7 -14 26 -47 42 -75 39 -65 101 -195 165 -350 21 -49 44
-117 54 -160 73 -301 87 -406 84 -625 -2 -152 -7 -188 -51 -377 -23 -94 -70
-206 -127 -298 -14 -22 -32 -55 -40 -72 -8 -18 -20 -33 -25 -33 -6 0 -10 -5
-10 -11 0 -6 -12 -25 -26 -43 -14 -17 -35 -43 -47 -59 -33 -42 -165 -177 -173
-177 -3 0 -23 -15 -44 -33 -63 -55 -81 -68 -90 -65 -4 2 9 44 30 93 63 154
120 346 145 488 8 42 17 82 20 87 19 31 36 454 22 555 -2 17 -8 64 -12 105
-11 98 -11 102 -18 120 -3 8 -8 37 -12 64 -4 27 -11 56 -15 65 -5 9 -16 43
-25 76 -46 170 -167 423 -283 594 -31 46 -68 100 -81 120 -58 89 -305 360
-377 415 -23 17 -73 58 -112 91 -93 79 -196 155 -211 155 -6 0 -11 4 -11 10 0
5 -12 16 -27 25 -16 9 -41 24 -58 35 -16 11 -55 33 -85 50 -30 17 -82 46 -115
65 -33 20 -116 63 -185 97 -69 33 -127 64 -130 67 -3 4 -27 17 -55 30 -27 13
-57 28 -65 33 -8 4 -24 13 -35 18 -11 6 -33 19 -50 30 -16 10 -58 34 -92 52
-35 17 -63 35 -63 40 0 4 -6 8 -14 8 -16 0 -39 24 -30 32 9 9 338 7 349 -2z
m-5641 -445 c8 -49 21 -117 30 -150 8 -33 20 -79 25 -103 6 -23 15 -50 20 -60
5 -9 19 -46 32 -82 12 -36 28 -76 34 -90 7 -14 30 -65 51 -115 20 -49 43 -97
50 -105 6 -8 15 -26 19 -40 4 -14 18 -41 30 -60 11 -19 34 -60 49 -90 114
-221 371 -526 581 -690 22 -17 62 -49 90 -70 27 -22 55 -40 62 -40 7 0 13 -4
13 -10 0 -5 5 -10 10 -10 6 0 23 -8 38 -18 96 -65 129 -84 233 -135 64 -31
123 -57 132 -57 9 0 18 -4 22 -10 3 -5 20 -14 38 -19 18 -5 78 -28 135 -50 57
-22 124 -43 148 -47 24 -3 46 -10 49 -14 3 -5 24 -11 48 -15 23 -3 62 -13 87
-20 25 -8 70 -17 100 -21 30 -3 65 -10 78 -15 12 -5 73 -12 135 -15 62 -3 119
-10 127 -14 15 -8 250 -6 330 3 25 3 86 8 135 12 50 4 101 12 113 16 13 5 27
7 32 4 5 -3 11 -1 14 3 3 5 24 9 47 10 24 1 70 9 103 17 34 8 102 24 151 35
99 23 189 47 220 60 11 5 31 11 45 13 14 2 34 8 45 13 18 7 18 6 6 -9 -7 -9
-25 -23 -40 -30 -14 -8 -60 -32 -101 -53 -41 -22 -106 -53 -145 -68 -38 -16
-74 -33 -80 -36 -5 -4 -26 -11 -45 -15 -19 -4 -51 -14 -70 -23 -65 -27 -75
-31 -120 -42 -71 -18 -143 -41 -162 -51 -10 -5 -30 -9 -44 -9 -14 0 -56 -7
-93 -15 -149 -33 -282 -54 -376 -60 -55 -3 -120 -9 -145 -12 -67 -8 -261 -9
-266 -1 -3 4 -26 7 -52 7 -166 0 -478 66 -702 148 -143 52 -342 146 -362 170
-6 7 -16 13 -24 13 -7 0 -50 25 -94 55 -44 30 -83 55 -85 55 -6 0 -4 -1 -160
128 -139 115 -211 189 -333 343 -28 37 -52 70 -52 74 0 4 -13 24 -29 44 -23
30 -62 97 -122 211 -4 8 -19 42 -34 75 -14 33 -30 67 -34 75 -5 9 -12 31 -16
50 -4 19 -11 40 -15 45 -4 6 -12 37 -18 70 -6 33 -14 71 -17 85 -30 120 -30
546 -1 657 32 120 56 227 56 247 0 11 8 28 18 39 16 19 17 17 29 -39 7 -33 19
-99 27 -149z m71 -1905 c133 -146 370 -370 390 -370 4 0 26 -15 49 -33 23 -18
61 -45 86 -60 73 -44 83 -51 117 -74 17 -13 38 -23 45 -24 7 0 27 -9 43 -19
17 -10 50 -28 75 -40 25 -11 58 -28 73 -35 16 -8 37 -15 47 -15 9 0 23 -6 29
-14 7 -8 31 -18 54 -21 23 -4 47 -11 52 -15 22 -16 110 -39 355 -95 84 -19
183 -33 345 -49 150 -15 533 -12 645 4 41 6 113 15 160 20 47 6 96 14 110 19
14 5 48 13 75 16 28 4 55 10 60 13 6 4 15 7 20 8 31 5 212 57 220 64 6 4 26
11 45 15 19 4 40 10 45 14 6 3 12 6 15 7 41 8 168 55 265 99 89 40 367 179
410 205 28 16 57 33 65 37 8 3 32 17 53 30 22 14 41 22 43 20 9 -9 -253 -257
-271 -257 -4 0 -24 -14 -44 -31 -39 -33 -197 -139 -208 -139 -3 0 -20 -10 -37
-23 -26 -19 -309 -162 -371 -188 -11 -4 -36 -14 -55 -23 -69 -29 -116 -48
-190 -73 -41 -14 -79 -29 -85 -33 -5 -4 -30 -11 -55 -15 -25 -4 -49 -10 -55
-14 -22 -13 -200 -58 -340 -86 -38 -7 -79 -16 -90 -19 -19 -6 -172 -21 -325
-32 -134 -10 -338 -4 -495 15 -82 9 -241 40 -270 52 -11 4 -36 11 -55 14 -46
9 -161 44 -182 56 -10 5 -23 9 -29 9 -13 0 -43 13 -179 79 -91 44 -99 49 -172
99 -26 17 -52 32 -57 32 -5 0 -11 3 -13 8 -1 4 -23 23 -48 43 -83 67 -199 194
-256 279 -47 71 -130 231 -139 265 -1 6 -5 17 -8 25 -33 78 -74 245 -82 335
l-7 70 20 -30 c10 -16 59 -73 107 -125z m4256 -532 c29 -259 -73 -511 -293
-724 -92 -90 -153 -144 -163 -144 -3 0 -26 -16 -49 -35 -24 -19 -46 -35 -50
-35 -4 0 -23 -12 -41 -26 -62 -47 -236 -135 -385 -194 -65 -26 -83 -34 -130
-54 -19 -8 -62 -22 -95 -31 -103 -29 -140 -40 -150 -46 -5 -4 -32 -10 -59 -14
-27 -3 -56 -11 -65 -15 -9 -5 -90 -21 -181 -35 -213 -34 -198 -32 -320 -45
-58 -6 -130 -15 -160 -20 -66 -11 -439 -9 -460 2 -8 4 -51 12 -95 17 -98 12
-193 29 -220 41 -11 4 -41 14 -68 20 -26 7 -50 17 -53 21 -3 5 -13 9 -22 9
-15 0 -175 75 -197 92 -5 5 -41 32 -80 60 -83 62 -275 252 -275 272 0 4 -12
23 -26 42 -15 19 -24 37 -21 40 3 3 23 -4 46 -15 22 -12 47 -21 54 -21 8 0 20
-7 27 -15 7 -8 21 -15 32 -15 11 0 29 -6 41 -12 12 -7 40 -18 62 -24 22 -7 60
-20 85 -29 25 -10 72 -24 105 -31 134 -29 161 -36 191 -45 18 -5 56 -12 85
-15 30 -3 92 -10 139 -16 102 -13 610 -20 625 -9 5 5 49 11 98 14 100 7 334
44 357 56 9 5 39 12 68 16 29 4 54 11 58 16 3 5 14 9 24 9 10 0 31 5 47 12 15
6 39 13 53 15 30 5 163 49 207 69 17 8 37 14 45 14 8 0 18 4 24 9 5 5 26 14
47 21 20 6 37 16 37 21 0 5 9 9 21 9 23 0 142 56 244 115 39 22 81 46 95 53
36 17 59 33 107 70 23 17 44 32 48 32 7 0 89 60 190 140 45 35 267 252 332
324 42 46 62 57 64 34z"/>
<path d="M5090 8854 c-52 -7 -131 -20 -175 -29 -44 -9 -91 -18 -105 -21 -123
-24 -333 -99 -485 -173 -289 -141 -515 -311 -690 -521 -245 -294 -369 -659
-352 -1040 12 -256 65 -464 182 -705 126 -260 226 -397 459 -630 188 -188 310
-293 1121 -964 477 -394 655 -572 811 -808 153 -231 242 -463 275 -718 11 -83
7 -349 -6 -415 -47 -244 -134 -440 -293 -665 -64 -90 -277 -308 -367 -377 -86
-65 -261 -181 -325 -215 -139 -75 -205 -107 -315 -152 -45 -19 -224 -81 -282
-98 -90 -26 -82 -43 20 -45 258 -6 373 -1 532 21 416 57 864 279 1147 568 127
129 229 259 283 360 14 26 30 55 35 63 33 56 110 254 124 320 32 143 38 203
40 350 0 104 -8 212 -24 299 -14 76 -39 181 -45 191 -3 6 -8 18 -10 27 -1 10
-21 63 -43 118 -137 347 -384 684 -700 957 -59 51 -109 95 -112 98 -3 4 -90
78 -195 165 -104 87 -217 182 -250 209 -33 28 -148 123 -254 211 -729 601
-909 789 -1073 1125 -90 183 -137 336 -157 515 -22 182 -6 396 39 550 12 39
25 84 29 100 15 54 132 296 157 326 8 8 14 19 14 23 0 8 32 55 73 106 15 19
31 40 36 46 88 113 258 276 360 346 190 131 252 168 385 233 83 40 176 83 206
95 116 46 340 119 382 125 51 8 76 20 65 32 -14 13 -415 12 -517 -3z"/>
</g>
</svg>
