<?xml version="1.0" standalone="no"?>
<!DOCTYPE svg PUBLIC "-//W3C//DTD SVG 20010904//EN"
 "http://www.w3.org/TR/2001/REC-SVG-20010904/DTD/svg10.dtd">
<svg version="1.0" xmlns="http://www.w3.org/2000/svg"
 width="88.000000pt" height="88.000000pt" viewBox="0 0 88.000000 88.000000"
 preserveAspectRatio="xMidYMid meet">
<metadata>
Created by potrace 1.14, written by Peter Selinger 2001-2017
</metadata>
<g transform="translate(0.000000,88.000000) scale(0.100000,-0.100000)"
fill="#000000" stroke="none">
<path d="M330 865 c-70 -18 -129 -53 -180 -105 -98 -101 -93 -245 14 -336 46
-40 148 -91 186 -94 65 -5 60 4 -22 44 -140 69 -188 115 -203 199 -8 41 14
116 40 137 12 10 12 6 4 -24 -17 -63 8 -139 65 -198 21 -22 87 -63 156 -98
134 -69 165 -100 164 -162 -2 -69 -71 -138 -169 -168 -50 -15 -57 -21 -45 -40
7 -12 31 -15 112 -15 98 1 106 3 166 34 73 40 132 95 158 149 24 49 22 127 -4
178 -42 81 -165 167 -258 178 -70 9 -67 -6 8 -38 109 -47 132 -61 177 -112 43
-50 57 -93 48 -151 -10 -58 -22 -57 -23 2 0 41 -7 64 -28 96 -41 61 -68 82
-192 144 -62 31 -121 66 -132 78 -49 52 -48 115 4 175 31 36 127 92 158 92 7
0 19 6 25 14 10 12 8 17 -8 26 -26 14 -161 11 -221 -5z m8 -78 c-45 -39 -69
-87 -70 -135 0 -83 39 -127 174 -195 125 -62 173 -98 198 -146 44 -87 9 -189
-82 -237 -39 -20 -39 -18 7 30 67 69 75 146 24 221 -18 27 -55 51 -151 101
-137 71 -179 108 -199 173 -22 74 15 155 91 200 49 29 51 26 8 -12z"/>
<path d="M495 789 c-83 -44 -135 -111 -135 -173 0 -52 14 -51 30 2 25 85 140
172 229 172 21 0 23 2 11 10 -26 17 -93 11 -135 -11z"/>
<path d="M555 741 c-57 -26 -103 -67 -127 -115 l-20 -41 49 51 c60 63 129 90
206 81 28 -4 55 -11 61 -17 5 -5 16 -10 23 -10 21 0 3 28 -32 50 -41 25 -106
26 -160 1z"/>
<path d="M540 653 c-29 -16 -64 -44 -79 -63 l-26 -34 36 27 c51 39 102 57 156
57 66 -1 121 -28 172 -86 40 -46 42 -47 35 -19 -12 55 -43 93 -96 119 -70 35
-130 34 -198 -1z"/>
<path d="M551 589 c-18 -6 -32 -12 -30 -13 2 -2 30 -6 61 -10 70 -7 124 -28
162 -64 35 -33 65 -96 66 -136 0 -45 22 -17 26 32 8 120 -156 230 -285 191z"/>
<path d="M56 512 c-13 -22 -8 -92 8 -117 58 -88 185 -140 271 -112 36 12 57
28 29 23 -29 -6 -134 13 -170 30 -61 29 -110 92 -124 159 -4 21 -8 26 -14 17z"/>
<path d="M50 352 c0 -25 28 -77 53 -100 79 -73 217 -61 317 28 l35 31 -40 -24
c-22 -13 -55 -29 -74 -35 -87 -30 -200 2 -259 74 -18 21 -32 33 -32 26z"/>
<path d="M446 261 c-72 -75 -208 -111 -289 -78 -45 19 -48 8 -6 -27 62 -52
189 -24 272 60 35 35 63 74 54 74 -2 0 -16 -13 -31 -29z"/>
<path d="M502 268 c-30 -75 -137 -152 -230 -165 l-47 -6 31 -13 c97 -40 296
105 264 191 -7 19 -9 18 -18 -7z"/>
</g>
</svg>
